<?xml version="1.0" standalone="no"?>
<!DOCTYPE svg PUBLIC "-//W3C//DTD SVG 20010904//EN"
 "http://www.w3.org/TR/2001/REC-SVG-20010904/DTD/svg10.dtd">
<svg version="1.0" xmlns="http://www.w3.org/2000/svg"
 width="1080.000000pt" height="1080.000000pt" viewBox="0 0 1080.000000 1080.000000"
 preserveAspectRatio="xMidYMid meet">

<g transform="translate(0.000000,1080.000000) scale(0.100000,-0.100000)"
fill="#000000" stroke="none">
<path d="M6507 9392 l-287 -287 288 -288 287 -287 288 288 287 287 -288 288
-287 287 -288 -288z"/>
<path d="M5665 9609 c-759 -46 -1516 -328 -2125 -790 -534 -406 -957 -939
-1226 -1546 -304 -687 -404 -1431 -293 -2198 68 -474 260 -1012 508 -1424 603
-1002 1589 -1680 2731 -1881 129 -22 392 -48 520 -51 l85 -2 0 219 0 219 -40
7 c-22 4 -89 14 -149 23 -894 127 -1722 676 -2210 1465 -442 714 -577 1591
-372 2415 178 715 607 1347 1224 1803 391 289 941 497 1471 557 74 8 137 17
140 21 3 3 7 269 9 590 l3 584 -73 -1 c-40 -1 -131 -5 -203 -10z"/>
<path d="M5915 8209 c-1187 -83 -2202 -863 -2595 -1994 -103 -297 -154 -623
-153 -970 2 -405 72 -754 227 -1128 324 -781 1026 -1422 1828 -1667 56 -17
117 -36 133 -41 99 -30 488 -94 506 -84 4 3 6 98 5 212 l-1 206 -105 23 c-399
84 -729 260 -1020 543 -192 188 -332 386 -452 638 -191 403 -265 883 -203
1317 27 192 86 426 106 426 12 0 149 -91 149 -99 0 -4 -11 -50 -25 -104 -41
-163 -58 -315 -59 -517 0 -274 39 -491 133 -750 72 -195 229 -469 362 -631
279 -340 640 -575 1021 -664 43 -10 81 -15 85 -11 5 4 8 98 8 208 l0 200 -55
18 c-140 45 -248 111 -376 232 -262 249 -427 573 -475 933 -33 255 35 662 148
890 134 268 352 454 618 527 67 18 106 22 240 22 146 0 168 -3 248 -27 376
-116 588 -391 667 -867 26 -153 40 -319 40 -462 l0 -118 445 0 444 0 5 33 c3
17 13 74 22 126 10 65 15 159 15 300 0 232 -22 393 -81 591 -215 723 -797
1274 -1475 1396 -137 25 -422 25 -555 1 -302 -56 -615 -212 -831 -415 l-37
-34 -78 53 c-44 29 -81 54 -83 56 -8 6 69 81 164 161 266 224 561 360 940 433
109 22 525 19 640 -4 318 -62 586 -177 825 -356 102 -76 268 -239 347 -339
200 -256 336 -557 387 -857 l12 -70 517 -3 517 -2 0 22 c-1 107 -65 418 -122
598 -220 689 -699 1290 -1318 1653 -537 314 -1076 440 -1705 396z"/>
<path d="M925 7530 l-300 -300 300 -300 c165 -165 303 -299 308 -297 10 3 597
590 597 597 0 6 -593 600 -600 600 -3 0 -140 -135 -305 -300z"/>
<path d="M1213 6472 l-603 -2 0 -113 c0 -236 44 -646 100 -927 135 -684 414
-1352 812 -1945 414 -615 988 -1166 1633 -1565 39 -24 86 -53 105 -65 62 -39
310 -167 456 -236 439 -208 1029 -381 1504 -443 155 -20 434 -45 548 -48 86
-3 93 -1 98 17 2 11 3 108 2 215 l-3 195 -165 12 c-185 14 -305 27 -430 49
-1542 268 -2796 1345 -3285 2820 -207 622 -266 1296 -170 1929 8 54 11 102 7
105 -4 3 -278 4 -609 2z"/>
<path d="M8117 5333 c-4 -3 -7 -199 -7 -435 l0 -428 615 0 615 0 0 -595 0
-595 426 -2 c278 -2 428 0 430 7 2 6 3 469 2 1030 l-3 1020 -1036 3 c-569 1
-1039 -1 -1042 -5z"/>
<path d="M6800 3765 l0 -375 237 0 238 0 -635 -635 -635 -635 0 -493 0 -492
485 -3 485 -2 620 620 c341 341 623 620 627 620 5 0 8 -92 8 -205 l0 -205 375
0 375 0 0 1090 0 1090 -1090 0 -1090 0 0 -375z"/>
</g>
</svg>
